<svg version="1.2" xmlns="http://www.w3.org/2000/svg" viewBox="0 0 1080 1080" width="1080" height="1080">
	<style>
		.s0 { fill: #000000 } 
	</style>
	<path id="Path 0" fill-rule="evenodd" class="s0" d="m757.5 472.13c9.9-0.03 22.27 0.35 27.5 0.84 6.59 0.63 13.33 2.18 22 5.06 6.88 2.28 17 6.36 22.5 9.06 5.5 2.7 13.83 7.77 18.5 11.27 4.67 3.51 12.6 10.37 17.61 15.26 5.01 4.88 12.66 13.38 17 18.88 4.77 6.04 9.96 14.16 13.11 20.5 2.86 5.77 7.06 16.13 9.33 23 2.47 7.52 4.47 15.89 5.01 21 0.5 4.67 0.92 16.38 0.93 26 0.02 11.46-0.51 20.61-1.53 26.5-0.86 4.95-2.9 13.05-4.54 18-1.65 4.95-5.4 13.95-8.34 20-2.94 6.05-8.7 15.5-12.79 21-4.1 5.5-13.07 15.4-19.92 22-6.86 6.6-15.82 14.23-19.92 16.96-4.1 2.72-12.4 7.28-18.45 10.13-6.05 2.84-15.5 6.54-21 8.21-5.5 1.68-12.7 3.57-16 4.21-3.92 0.75-14.51 1.02-55 0.38l-12-3.6c-6.6-1.98-16.05-5.33-21-7.45-4.95-2.12-13.73-6.99-19.5-10.81-6.81-4.52-15.03-11.37-23.4-19.5-7.1-6.89-15.44-15.9-18.52-20.03-3.09-4.12-8.17-12.45-11.28-18.5-3.11-6.05-7.27-15.95-9.25-22-1.98-6.05-4.28-14.6-5.11-19-1.02-5.45-1.51-14.54-1.53-28.5-0.02-14.99 0.41-22.65 1.59-28.5 0.89-4.4 3.43-13.4 5.64-20 2.21-6.6 6.05-15.83 8.55-20.5 2.49-4.67 6.87-11.65 9.74-15.5 2.87-3.85 8.56-10.78 12.64-15.4 4.09-4.62 11.26-11.61 15.93-15.53 4.67-3.91 12.77-9.76 18-13 5.23-3.23 11.52-6.75 14-7.83 2.48-1.08 9.45-3.74 15.5-5.91 6.05-2.18 14.38-4.56 18.5-5.3 4.36-0.79 15.02-1.37 25.5-1.4zm-20 80.39c-2.75 0.94-7.25 2.85-10 4.23-2.75 1.38-6.8 3.87-9 5.54-2.2 1.66-7.05 6.21-10.77 10.12-4.79 5.01-8.09 9.73-11.26 16.09-2.51 5.03-5.15 12.2-5.98 16.25-0.82 3.99-1.49 11.3-1.49 16.25 0 4.95 0.72 12.49 1.6 16.75 0.88 4.26 2.32 9.55 3.2 11.75 0.87 2.2 3.61 7.15 6.08 11 2.46 3.85 7.21 9.72 10.55 13.03 3.34 3.32 9.22 7.87 13.07 10.12 3.85 2.24 10.15 5.37 14 6.94 6.76 2.77 7.59 2.87 24 2.88l17 0.01c13.95-5.84 20.88-9.44 24.4-11.76 3.53-2.32 8.65-6.7 11.4-9.72 2.74-3.02 6.56-7.98 8.5-11 1.93-3.02 4.51-7.75 5.73-10.5 1.21-2.75 3-8.37 3.97-12.5 1.06-4.52 1.74-11.28 1.72-17-0.03-5.23-0.55-11.75-1.17-14.5-0.62-2.75-2.22-7.92-3.57-11.5-1.34-3.58-3.92-8.8-5.71-11.62-1.8-2.81-4.85-7.01-6.77-9.32-1.92-2.31-6.42-6.62-10-9.56-3.58-2.95-9.88-6.94-14-8.87-4.13-1.92-11.44-4.43-16.25-5.56-4.81-1.14-11.79-2.03-15.5-1.99-3.71 0.04-9.45 0.68-12.75 1.41-3.3 0.72-8.25 2.09-11 3.03zm18.25 254.6c15.54-0.06 35.11 0.35 43.5 0.92 8.39 0.57 22.23 1.91 30.75 2.97 8.52 1.07 22.02 3.32 30 5.01 7.98 1.7 19.9 4.45 26.5 6.11 6.6 1.67 19.2 5.22 28 7.88 8.8 2.67 24.1 7.98 34 11.81 9.9 3.82 25.42 10.27 34.5 14.33 9.08 4.05 18.75 8.68 21.5 10.28 2.75 1.6 7.25 4.56 10 6.57 2.75 2.01 8.83 7.45 13.5 12.09 4.67 4.63 11.06 12.25 14.18 16.92 3.12 4.67 7.23 12.09 9.12 16.49 1.89 4.4 4.47 11.15 5.73 15 2.28 6.96 2.3 7.4 2.97 135.5h-598l0.47-60.75c0.36-47.83 0.77-62.13 1.9-67.25 0.79-3.58 2.44-9.42 3.67-13 1.22-3.58 4.02-10.1 6.2-14.5 2.19-4.4 5.67-10.48 7.75-13.5 2.07-3.02 7.87-9.66 12.89-14.75 5.01-5.09 12.61-11.54 16.87-14.35 4.26-2.8 12.25-7.27 17.75-9.93 5.5-2.65 16.52-7.6 24.5-10.98 7.98-3.38 18.77-7.74 24-9.7 5.23-1.95 16.25-5.77 24.5-8.47 8.25-2.7 22.87-6.89 32.5-9.3 9.62-2.41 23.12-5.53 30-6.92 6.87-1.4 18.12-3.25 25-4.11 6.87-0.86 18.12-2.17 25-2.91 6.94-0.74 25.06-1.39 40.75-1.46zm-47.25 79.86c-4.4 0.61-15.42 2.46-24.5 4.09-9.08 1.64-21.9 4.34-28.5 6.01-6.6 1.66-17.63 4.75-24.5 6.87-6.88 2.11-17.45 5.73-23.5 8.03-6.05 2.31-14.83 5.76-19.5 7.67-4.67 1.92-14.08 6.27-20.9 9.67-6.82 3.4-14.24 7.81-16.5 9.81-2.25 2-5.73 6.73-7.73 10.5l-3.63 6.87-1.24 37.5h447l-1.24-37.5c-6.41-11.44-10.05-16.21-12.26-18.01-2.2-1.8-10.52-6.53-18.5-10.51-7.98-3.99-23.05-10.5-33.5-14.47-10.45-3.97-22.83-8.39-27.5-9.81-4.67-1.42-15.7-4.38-24.5-6.56-8.8-2.19-22.98-5.17-31.5-6.62-8.52-1.46-18.42-3.06-22-3.56-3.58-0.5-13.7-1.37-22.5-1.94-8.8-0.56-22.75-0.95-31-0.87-8.25 0.08-21.52 0.5-29.5 0.93-7.98 0.43-18.1 1.28-22.5 1.9z"/>
	<path id="Path 0" class="s0" d="m245 73.25c0 30.39-0.29 122.75-0.64 205.25-0.35 82.5-0.8 150.11-1 150.25-0.2 0.14-4.3-1.51-9.11-3.67-4.81-2.15-10.55-4.65-12.75-5.55-2.2-0.89-8.5-2.91-14-4.49-5.5-1.57-13.82-3.35-18.5-3.96-4.68-0.6-14.13-1.09-21-1.09-6.88 0-17.68 0.66-24 1.45-6.32 0.8-15.78 2.77-21 4.38-5.22 1.6-11.97 3.92-15 5.13-3.03 1.22-9.55 4.29-14.5 6.82-4.95 2.54-10.58 5.75-12.5 7.15-1.92 1.39-7.96 6.14-13.41 10.56-5.44 4.41-13.71 12.29-18.37 17.52-4.66 5.23-10.55 12.42-13.09 15.99-2.55 3.57-7.36 11.9-10.69 18.5-3.33 6.61-7.47 16.51-9.2 22.01-1.72 5.5-3.88 12.92-4.79 16.5-1.41 5.53-1.58 10.6-1.17 34 0.48 27.3 0.51 27.58 3.68 38.5 1.76 6.05 4.6 14.37 6.32 18.5 1.73 4.12 5.35 11.55 8.05 16.5 2.71 4.95 7.4 12.37 10.44 16.5 3.03 4.12 11.19 13.15 18.12 20.06 8.45 8.41 16.08 14.9 23.11 19.62 5.78 3.88 13.76 8.69 17.75 10.69 3.99 2 12.54 5.4 19 7.56 6.46 2.17 15.24 4.64 19.5 5.5 5.71 1.16 13.88 1.57 31 1.57 22.32 0.01 23.73-0.11 35.25-2.92 6.6-1.62 15.37-4.14 19.5-5.62 4.12-1.48 12-4.99 17.5-7.8 5.5-2.82 14.28-8.3 19.5-12.2 5.23-3.89 13.33-10.87 18-15.52 4.68-4.64 12.1-12.94 16.5-18.45 4.61-5.76 10.29-14.45 13.4-20.5 2.98-5.77 6.52-13.41 7.87-16.99 1.35-3.58 3.76-11 5.36-16.5 2-6.9 3.04-13.1 3.37-20 0.27-5.5 0.7-16.08 0.97-23.5 0.27-7.42 0.5-97.99 0.51-201.25l0.02-187.75h157v-158h-237z"/>
	<path id="Path 0" class="s0" d="m513.74 513.75l-481.75 481.75 53.02 53 963.49-963.5-53-53z"/>
</svg>