<svg width="63" height="70" viewBox="0 0 63 70" fill="none" xmlns="http://www.w3.org/2000/svg">
<path d="M17.5 42C16.5083 42 15.6771 41.6646 15.0062 40.9937C14.3354 40.3229 14 39.4917 14 38.5C14 37.5083 14.3354 36.6771 15.0062 36.0062C15.6771 35.3354 16.5083 35 17.5 35C18.4917 35 19.3229 35.3354 19.9937 36.0062C20.6646 36.6771 21 37.5083 21 38.5C21 39.4917 20.6646 40.3229 19.9937 40.9937C19.3229 41.6646 18.4917 42 17.5 42ZM31.5 42C30.5083 42 29.6771 41.6646 29.0062 40.9937C28.3354 40.3229 28 39.4917 28 38.5C28 37.5083 28.3354 36.6771 29.0062 36.0062C29.6771 35.3354 30.5083 35 31.5 35C32.4917 35 33.3229 35.3354 33.9937 36.0062C34.6646 36.6771 35 37.5083 35 38.5C35 39.4917 34.6646 40.3229 33.9937 40.9937C33.3229 41.6646 32.4917 42 31.5 42ZM45.5 42C44.5083 42 43.6771 41.6646 43.0062 40.9937C42.3354 40.3229 42 39.4917 42 38.5C42 37.5083 42.3354 36.6771 43.0062 36.0062C43.6771 35.3354 44.5083 35 45.5 35C46.4917 35 47.3229 35.3354 47.9937 36.0062C48.6646 36.6771 49 37.5083 49 38.5C49 39.4917 48.6646 40.3229 47.9937 40.9937C47.3229 41.6646 46.4917 42 45.5 42ZM7 70C5.075 70 3.42708 69.3146 2.05625 67.9437C0.685417 66.5729 0 64.925 0 63V14C0 12.075 0.685417 10.4271 2.05625 9.05625C3.42708 7.68542 5.075 7 7 7H10.5V0H17.5V7H45.5V0H52.5V7H56C57.925 7 59.5729 7.68542 60.9437 9.05625C62.3146 10.4271 63 12.075 63 14V63C63 64.925 62.3146 66.5729 60.9437 67.9437C59.5729 69.3146 57.925 70 56 70H7ZM7 63H56V28H7V63ZM7 21H56V14H7V21Z" fill="black"/>
</svg>
