<svg width="80" height="17" viewBox="0 0 80 17" fill="none" xmlns="http://www.w3.org/2000/svg">
<path d="M-0.000117153 0.0200002H5.29988C8.13988 0.0200002 10.7999 1.46 10.7999 4.76V9.52C10.7999 12.78 8.13988 14.2 5.29988 14.18H-0.000117153V0.0200002ZM3.59988 10.82H5.41988C6.63988 10.82 7.19988 10.2 7.19988 9.28V4.86C7.19988 3.94 6.61988 3.36 5.41988 3.36H3.59988V10.82ZM16.3347 3.38V5.58H22.0747V8.68H16.3347V10.8H22.5747V14.18H12.7147V0.0200002H22.5747V3.38H16.3347ZM28.0925 3.42V5.96H33.5525V9.3H28.0925V14.18H24.4725V0.0200002H34.3325V3.42H28.0925ZM41.7646 0.0200002L46.8246 14.18H42.9846L42.0646 11.34H38.2846L37.4046 14.18H33.5646L38.5046 0.0200002H41.7646ZM39.0846 8.16H41.2046L40.2246 4.02H40.1246L39.0846 8.16ZM50.9227 0.0200002V9.44C50.9227 11.72 54.9627 11.72 54.9827 9.44V0.0200002H58.6027V9.44C58.5827 16.08 47.2827 16.08 47.3027 9.44V0.0200002H50.9227ZM60.7225 14.18V0.0200002H64.3225V10.64H70.0825V14.18H60.7225ZM79.8116 3.4H76.0516V14.18H72.4316V3.4H68.6716V-7.15256e-07H79.8116V3.4Z" fill="black"/>
</svg>
