<svg width="169" xmlns="http://www.w3.org/2000/svg" height="84.375" id="screenshot-a0c26d1e-7be0-8055-8006-0c938af23e01" viewBox="0 0 169 84.375" xmlns:xlink="http://www.w3.org/1999/xlink" fill="none" version="1.1"><g id="shape-a0c26d1e-7be0-8055-8006-0c938af23e01" rx="0" ry="0"><g clip-path="url(#render-1-a0c26d1e-7be0-8055-8006-0c93682904ed-clip)"><g mask="url(#render-1-a0c26d1e-7be0-8055-8006-0c93682904ed-mask)"><defs><filter id="render-1-a0c26d1e-7be0-8055-8006-0c93682904ed-filter"><feFlood flood-color="white" result="FloodResult"/><feComposite in="FloodResult" in2="SourceGraphic" operator="in" result="comp"/></filter><clipPath id="render-1-a0c26d1e-7be0-8055-8006-0c93682904ed-clip" class="mask-clip-path"><polyline points="0,0 169,0 169,84.375 0,84.375"/></clipPath><mask width="169" maskUnits="userSpaceOnUse" height="84.375" class="mask-shape" x="0" id="render-1-a0c26d1e-7be0-8055-8006-0c93682904ed-mask" data-old-y="0" data-old-width="169" data-old-x="0" y="0" data-old-height="84.375"><g filter="url(#render-1-a0c26d1e-7be0-8055-8006-0c93682904ed-filter)"><g id="shape-a0c26d1e-7be0-8055-8006-0c93682904ed" width="240" height="120" rx="0" ry="0" style="fill: rgb(0, 0, 0);"><g id="shape-a0c26d1e-7be0-8055-8006-0c936829d9e0" style="display: none;"><g class="fills" id="fills-a0c26d1e-7be0-8055-8006-0c936829d9e0"><rect width="168.75" height="84.375" x="0" transform="matrix(1.000000, 0.000000, 0.000000, 1.000000, 0.000000, 0.000000)" style="fill: rgb(177, 178, 181); fill-opacity: 1;" ry="0" fill="none" rx="0" y="0"/></g></g><g id="shape-a0c26d1e-7be0-8055-8006-0c936829d9e1"><g class="fills" id="fills-a0c26d1e-7be0-8055-8006-0c936829d9e1"><path d="M56.4999885559082,0L112.74999237060547,0C169.00001525878906,0,169.00001525878906,0,169.00001525878906,56.25L169.00001525878906,28.125C169.00001525878906,84.375,169.00001525878906,84.375,112.74999237060547,84.375L56.4999885559082,84.375C0.2499898225069046,84.375,0.2499898225069046,84.375,0.2499898225069046,28.125L0.2499898225069046,56.25C0.2499898225069046,0,0.2499898225069046,0,56.4999885559082,0" style="fill: rgb(237, 47, 91);"/></g></g></g></g></mask></defs><g id="shape-a0c26d1e-7be0-8055-8006-0c93b15695db"><g class="fills" id="fills-a0c26d1e-7be0-8055-8006-0c93b15695db"><rect rx="0" ry="0" x="-59.984375" y="-29.875" transform="matrix(1.000000, 0.000000, 0.000000, 1.000000, 0.000000, 0.000000)" width="281.953125" height="172.96875" style="fill: rgb(0, 0, 0); fill-opacity: 1;"/></g></g><g id="shape-a0c26d1e-7be0-8055-8006-0c932a04ddd2"><defs><pattern patternUnits="userSpaceOnUse" x="19.9375" y="23.90625" width="135" height="37.265625" id="fill-0-render-6"><g><image id="fill-image-render-6-0" href="http://localhost:6080/assets/by-file-media-id/9f31952d-2d54-8169-8006-0cc037275823" preserveAspectRatio="xMidYMid slice" width="135" height="37.265625" opacity="1"/></g></pattern></defs><g class="fills" id="fills-a0c26d1e-7be0-8055-8006-0c932a04ddd2"><rect rx="0" ry="0" x="19.9375" y="23.90625" transform="matrix(1.000000, 0.000000, 0.000000, 1.000000, 0.000000, 0.000000)" width="135" height="37.265625" fill="url(#fill-0-render-6)"/></g></g></g></g></g></svg>